<svg width="48" height="48" viewBox="0 0 48 48" fill="none" xmlns="http://www.w3.org/2000/svg">
<path d="M24 30C25.5913 30 27.1174 29.3679 28.2426 28.2426C29.3679 27.1174 30 25.5913 30 24C30 22.4087 29.3679 20.8826 28.2426 19.7574C27.1174 18.6321 25.5913 18 24 18C22.4087 18 20.8826 18.6321 19.7574 19.7574C18.6321 20.8826 18 22.4087 18 24C18 25.5913 18.6321 27.1174 19.7574 28.2426C20.8826 29.3679 22.4087 30 24 30V30Z" stroke="#160647" stroke-width="1.5" stroke-miterlimit="1.5" stroke-linecap="round" stroke-linejoin="round"/>
<path d="M24 18C24 18 20.024 14.05 20 10C20.002 6.014 19.9 1.998 24 2C27.896 2.002 27.994 5.952 28 10C28.006 13.97 24 18 24 18ZM30 24C30 24 33.95 20.024 38 20C41.986 20.002 46.002 19.9 46 24C45.998 27.896 42.048 27.994 38 28C34.03 28.006 30 24 30 24ZM18 24C18 24 14.05 27.976 10 28C6.014 27.998 1.998 28.1 2 24C2.002 20.104 5.952 20.006 10 20C13.97 19.994 18 24 18 24ZM24 30C24 30 27.976 33.95 28 38C27.998 41.986 28.1 46.002 24 46C20.104 45.998 20.006 42.048 20 38C19.994 34.03 24 30 24 30Z" stroke="#160647" stroke-width="1.5" stroke-miterlimit="1.5" stroke-linecap="round" stroke-linejoin="round"/>
</svg>
