<svg width="48" height="48" viewBox="0 0 48 48" fill="none" xmlns="http://www.w3.org/2000/svg">
<path d="M20 39.9999C20 43.9999 24 45.9999 24 45.9999C24 45.9999 28 43.9999 28 39.9999M17 24.9999C9.99999 29.9999 14 37.9999 14 37.9999L20 33.9999M31.862 24.9999C38.862 29.9999 34.862 37.9999 34.862 37.9999L28.862 33.9999M32.122 20.8079L28 33.9999H20L15.878 20.8079C15.2985 18.9546 15.1774 16.9884 15.525 15.078C15.8727 13.1676 16.6787 11.3702 17.874 9.83987L23.054 3.20987C23.1662 3.06608 23.3097 2.94976 23.4737 2.86975C23.6376 2.78975 23.8176 2.74817 24 2.74817C24.1824 2.74817 24.3624 2.78975 24.5263 2.86975C24.6902 2.94976 24.8338 3.06608 24.946 3.20987L30.126 9.83987C31.3212 11.3702 32.1273 13.1676 32.475 15.078C32.8226 16.9884 32.7015 18.9546 32.122 20.8079V20.8079Z" stroke="#160647" stroke-width="1.5" stroke-linecap="round" stroke-linejoin="round"/>
<path d="M24 21.9999C22.9391 21.9999 21.9217 21.5784 21.1716 20.8283C20.4214 20.0782 20 19.0607 20 17.9999C20 16.939 20.4214 15.9216 21.1716 15.1715C21.9217 14.4213 22.9391 13.9999 24 13.9999C25.0609 13.9999 26.0783 14.4213 26.8284 15.1715C27.5786 15.9216 28 16.939 28 17.9999C28 19.0607 27.5786 20.0782 26.8284 20.8283C26.0783 21.5784 25.0609 21.9999 24 21.9999Z" stroke="#160647" stroke-width="1.5" stroke-linecap="round" stroke-linejoin="round"/>
</svg>
