<svg width="48" height="48" viewBox="0 0 48 48" fill="none" xmlns="http://www.w3.org/2000/svg">
<path d="M44 28V17M12 26V12C12 10.4087 12.6321 8.88258 13.7574 7.75736C14.8826 6.63214 16.4087 6 18 6H28M33.984 8H39.984M45.984 8H39.984M39.984 8V2M39.984 8V14M24 42H12C9.87827 42 7.84344 41.1571 6.34315 39.6569C4.84285 38.1566 4 36.1217 4 34C4 31.8783 4.84285 29.8434 6.34315 28.3431C7.84344 26.8429 9.87827 26 12 26H36C34.4177 26 32.871 26.4692 31.5554 27.3482C30.2398 28.2273 29.2145 29.4767 28.609 30.9385C28.0035 32.4003 27.845 34.0089 28.1537 35.5607C28.4624 37.1126 29.2243 38.538 30.3431 39.6569C31.462 40.7757 32.8874 41.5376 34.4393 41.8463C35.9911 42.155 37.5997 41.9965 39.0615 41.391C40.5233 40.7855 41.7727 39.7602 42.6518 38.4446C43.5308 37.129 44 35.5823 44 34V28" stroke="#160647" stroke-width="1.5" stroke-linecap="round" stroke-linejoin="round"/>
</svg>
