<svg width="68" height="68" viewBox="0 0 68 68" fill="none" xmlns="http://www.w3.org/2000/svg">
<g clip-path="url(#clip0_1_497)">
<mask id="mask0_1_497" style="mask-type:luminance" maskUnits="userSpaceOnUse" x="0" y="-1" width="68" height="69">
<path d="M67.8822 33.941L33.9411 67.8822L-4.76837e-05 33.941L33.9411 -8.4877e-05L67.8822 33.941Z" fill="white"/>
</mask>
<g mask="url(#mask0_1_497)">
<path d="M34.0853 9.46665L34.0853 27.4668M26.754 42.8025L21.3659 32.0262C21.2793 31.8536 21.2357 31.6628 21.2386 31.4697C21.2416 31.2767 21.2911 31.0873 21.3829 30.9174L32.9893 9.49352C33.0939 9.30054 33.2494 9.13995 33.439 9.02922C33.6285 8.9185 33.8448 8.86187 34.0642 8.86552C34.2837 8.86917 34.498 8.93294 34.6837 9.0499C34.8695 9.16686 35.0196 9.33253 35.1177 9.52887L45.8403 30.9768C45.9173 31.1308 45.9604 31.2995 45.9665 31.4715C45.9726 31.6435 45.9416 31.8149 45.8756 31.9739L41.394 42.729C41.3031 42.9478 41.1494 43.1348 40.9523 43.2665C40.7553 43.3981 40.5236 43.4684 40.2867 43.4686L27.8288 43.4672C27.6056 43.4673 27.3867 43.4052 27.1969 43.2878C27.007 43.1704 26.8536 43.0023 26.754 42.8025V42.8025Z" stroke="#160647" stroke-width="1.5" stroke-linecap="round" stroke-linejoin="round"/>
<path d="M27.085 43.4672L27.0864 51.4674C27.0865 52.528 27.508 53.5452 28.258 54.2952C29.008 55.0452 30.0251 55.4666 31.0858 55.4668L37.0849 55.4696C37.6103 55.4697 38.1306 55.3663 38.616 55.1653C39.1015 54.9642 39.5426 54.6695 39.9141 54.298C40.2856 53.9265 40.5803 53.4854 40.7814 53C40.9824 52.5145 41.0858 51.9942 41.0857 51.4688L41.0843 43.4686M34.0867 33.4673C34.4807 33.4672 34.8709 33.3895 35.2348 33.2386C35.5988 33.0877 35.9295 32.8667 36.208 32.588C36.4866 32.3093 36.7075 31.9785 36.8582 31.6145C37.0089 31.2505 37.0864 30.8603 37.0863 30.4663C37.0862 30.0723 37.0085 29.6822 36.8576 29.3182C36.7068 28.9542 36.4857 28.6235 36.207 28.345C35.9284 28.0665 35.5976 27.8456 35.2335 27.6949C34.8695 27.5442 34.4793 27.4667 34.0853 27.4667C33.2896 27.4669 32.5266 27.7832 31.964 28.346C31.4015 28.9088 31.0856 29.672 31.0858 30.4677C31.086 31.2634 31.4022 32.0265 31.965 32.589C32.5278 33.1515 33.291 33.4674 34.0867 33.4673Z" stroke="#160647" stroke-width="1.5" stroke-linecap="round" stroke-linejoin="round"/>
</g>
</g>
<defs>
<clipPath id="clip0_1_497">
<rect width="48" height="48" fill="white" transform="translate(67.8822 33.941) rotate(135)"/>
</clipPath>
</defs>
</svg>
