<svg width="48" height="48" viewBox="0 0 48 48" fill="none" xmlns="http://www.w3.org/2000/svg">
<path d="M36 12H40M44 12H40M40 12V8M40 12V16M4 22V9.2C4 8.88174 4.12643 8.57652 4.35147 8.35147C4.57652 8.12643 4.88174 8 5.2 8H17.556C17.842 7.99998 18.1186 8.10211 18.336 8.288L24.664 13.712C24.8814 13.8979 25.158 14 25.444 14H28M42.8 40H5.2C4.88174 40 4.57652 39.8736 4.35147 39.6485C4.12643 39.4235 4 39.1183 4 38.8V22H42.8C42.9576 22 43.1136 22.031 43.2592 22.0913C43.4048 22.1517 43.5371 22.24 43.6485 22.3515C43.76 22.4629 43.8484 22.5952 43.9087 22.7408C43.969 22.8864 44 23.0424 44 23.2V38.8C44 38.9576 43.969 39.1136 43.9087 39.2592C43.8484 39.4048 43.76 39.5371 43.6485 39.6485C43.5371 39.76 43.4048 39.8484 43.2592 39.9087C43.1136 39.969 42.9576 40 42.8 40V40Z" stroke="#160647" stroke-width="1.5" stroke-linecap="round" stroke-linejoin="round"/>
</svg>
