<svg width="22" height="23" viewBox="0 0 22 23" fill="none" xmlns="http://www.w3.org/2000/svg">
<path fill-rule="evenodd" clip-rule="evenodd" d="M6.465 0.617758C7.638 0.563758 8.012 0.551758 11 0.551758C13.988 0.551758 14.362 0.564758 15.534 0.617758C16.706 0.670758 17.506 0.857758 18.206 1.12876C18.939 1.40576 19.604 1.83876 20.154 2.39876C20.714 2.94776 21.146 3.61176 21.422 4.34576C21.694 5.04576 21.88 5.84576 21.934 7.01576C21.988 8.19076 22 8.56476 22 11.5518C22 14.5398 21.987 14.9138 21.934 16.0868C21.881 17.2568 21.694 18.0568 21.422 18.7568C21.146 19.4909 20.7133 20.156 20.154 20.7058C19.604 21.2658 18.939 21.6978 18.206 21.9738C17.506 22.2458 16.706 22.4318 15.536 22.4858C14.362 22.5398 13.988 22.5518 11 22.5518C8.012 22.5518 7.638 22.5388 6.465 22.4858C5.295 22.4328 4.495 22.2458 3.795 21.9738C3.06092 21.6977 2.39582 21.265 1.846 20.7058C1.28638 20.1564 0.853315 19.4916 0.577 18.7578C0.306 18.0578 0.12 17.2578 0.066 16.0878C0.012 14.9128 0 14.5388 0 11.5518C0 8.56376 0.013 8.18976 0.066 7.01776C0.119 5.84576 0.306 5.04576 0.577 4.34576C0.853723 3.61184 1.28712 2.94707 1.847 2.39776C2.39604 1.83826 3.06047 1.4052 3.794 1.12876C4.494 0.857758 5.294 0.671758 6.464 0.617758H6.465ZM15.445 2.59776C14.285 2.54476 13.937 2.53376 11 2.53376C8.063 2.53376 7.715 2.54476 6.555 2.59776C5.482 2.64676 4.9 2.82576 4.512 2.97676C3.999 3.17676 3.632 3.41376 3.247 3.79876C2.88205 4.15381 2.60118 4.58604 2.425 5.06376C2.274 5.45176 2.095 6.03376 2.046 7.10676C1.993 8.26676 1.982 8.61476 1.982 11.5518C1.982 14.4888 1.993 14.8368 2.046 15.9968C2.095 17.0698 2.274 17.6518 2.425 18.0398C2.601 18.5168 2.882 18.9498 3.247 19.3048C3.602 19.6698 4.035 19.9508 4.512 20.1268C4.9 20.2778 5.482 20.4568 6.555 20.5058C7.715 20.5588 8.062 20.5698 11 20.5698C13.938 20.5698 14.285 20.5588 15.445 20.5058C16.518 20.4568 17.1 20.2778 17.488 20.1268C18.001 19.9268 18.368 19.6898 18.753 19.3048C19.118 18.9498 19.399 18.5168 19.575 18.0398C19.726 17.6518 19.905 17.0698 19.954 15.9968C20.007 14.8368 20.018 14.4888 20.018 11.5518C20.018 8.61476 20.007 8.26676 19.954 7.10676C19.905 6.03376 19.726 5.45176 19.575 5.06376C19.375 4.55076 19.138 4.18376 18.753 3.79876C18.3979 3.43383 17.9657 3.15297 17.488 2.97676C17.1 2.82576 16.518 2.64676 15.445 2.59776ZM9.595 14.9428C10.3797 15.2694 11.2534 15.3135 12.0669 15.0675C12.8805 14.8215 13.5834 14.3007 14.0556 13.594C14.5278 12.8873 14.7401 12.0386 14.656 11.1929C14.572 10.3471 14.197 9.55673 13.595 8.95676C13.2112 8.57323 12.7472 8.27957 12.2363 8.0969C11.7255 7.91424 11.1804 7.84712 10.6405 7.90037C10.1006 7.95363 9.57915 8.12594 9.1138 8.40489C8.64845 8.68384 8.25074 9.0625 7.9493 9.51361C7.64786 9.96472 7.45019 10.477 7.37052 11.0137C7.29084 11.5504 7.33115 12.0981 7.48854 12.6173C7.64593 13.1365 7.91648 13.6144 8.28072 14.0165C8.64496 14.4186 9.09382 14.7349 9.595 14.9428ZM7.002 7.55376C7.52702 7.02873 8.15032 6.61226 8.8363 6.32812C9.52228 6.04398 10.2575 5.89773 11 5.89773C11.7425 5.89773 12.4777 6.04398 13.1637 6.32812C13.8497 6.61226 14.473 7.02873 14.998 7.55376C15.523 8.07878 15.9395 8.70208 16.2236 9.38806C16.5078 10.074 16.654 10.8093 16.654 11.5518C16.654 12.2943 16.5078 13.0295 16.2236 13.7155C15.9395 14.4014 15.523 15.0247 14.998 15.5498C13.9377 16.6101 12.4995 17.2058 11 17.2058C9.50046 17.2058 8.06234 16.6101 7.002 15.5498C5.94166 14.4894 5.34597 13.0513 5.34597 11.5518C5.34597 10.0522 5.94166 8.61409 7.002 7.55376ZM17.908 6.73976C18.0381 6.61703 18.1423 6.46944 18.2143 6.30573C18.2863 6.14202 18.3248 5.96553 18.3274 5.78669C18.33 5.60785 18.2967 5.43031 18.2295 5.26457C18.1622 5.09883 18.0624 4.94827 17.936 4.8218C17.8095 4.69533 17.6589 4.59552 17.4932 4.52828C17.3275 4.46104 17.1499 4.42773 16.9711 4.43034C16.7922 4.43295 16.6157 4.47141 16.452 4.54345C16.2883 4.6155 16.1407 4.71965 16.018 4.84976C15.7793 5.10279 15.6486 5.43888 15.6537 5.78669C15.6588 6.1345 15.7992 6.46664 16.0452 6.7126C16.2911 6.95856 16.6233 7.09899 16.9711 7.10406C17.3189 7.10913 17.655 6.97845 17.908 6.73976Z" fill="#313131"/>
</svg>
