<svg width="24" height="25" viewBox="0 0 24 25" fill="none" xmlns="http://www.w3.org/2000/svg">
<path d="M23.643 5.48883C22.808 5.85883 21.911 6.10883 20.968 6.22183C21.941 5.63963 22.669 4.7233 23.016 3.64383C22.1019 4.18682 21.1014 4.56903 20.058 4.77383C19.3564 4.0247 18.4271 3.52816 17.4143 3.36131C16.4016 3.19446 15.3621 3.36663 14.4572 3.85109C13.5524 4.33555 12.8328 5.1052 12.4102 6.04054C11.9875 6.97588 11.8855 8.02458 12.12 9.02383C10.2677 8.93083 8.45564 8.44938 6.80144 7.61074C5.14723 6.7721 3.68785 5.595 2.51801 4.15583C2.11801 4.84583 1.88801 5.64583 1.88801 6.49783C1.88757 7.26483 2.07644 8.02008 2.43789 8.69657C2.79934 9.37306 3.32217 9.94987 3.96001 10.3758C3.22029 10.3523 2.49688 10.1524 1.85001 9.79283V9.85283C1.84994 10.9286 2.22204 11.9712 2.90319 12.8038C3.58434 13.6364 4.53258 14.2078 5.58701 14.4208C4.9008 14.6066 4.18135 14.6339 3.48301 14.5008C3.78051 15.4264 4.36001 16.2359 5.14038 16.8158C5.92075 17.3957 6.86293 17.717 7.83501 17.7348C6.18484 19.0302 4.1469 19.7329 2.04901 19.7298C1.67739 19.7299 1.30609 19.7082 0.937012 19.6648C3.06649 21.034 5.54535 21.7607 8.07701 21.7578C16.647 21.7578 21.332 14.6598 21.332 8.50383C21.332 8.30383 21.327 8.10183 21.318 7.90183C22.2293 7.24281 23.0159 6.42673 23.641 5.49183L23.643 5.48883Z" fill="#313131"/>
</svg>
